<mxfile host="app.diagrams.net" modified="2024-02-19T19:15:07.500Z" agent="Mozilla/5.0 (Windows NT 10.0; Win64; x64) AppleWebKit/537.36 (KHTML, like Gecko) Chrome/121.0.0.0 Safari/537.36 OPR/107.0.0.0" etag="i0-FEvZDYnE-QlNd5pgu" version="23.1.5" type="device">
  <diagram name="PÃ¡gina-1" id="proA-QGNsvPLXwBLb34n">
    <mxGraphModel dx="1393" dy="765" grid="1" gridSize="10" guides="1" tooltips="1" connect="1" arrows="1" fold="1" page="1" pageScale="1" pageWidth="827" pageHeight="1169" math="0" shadow="0">
      <root>
        <mxCell id="0" />
        <mxCell id="1" parent="0" />
        <mxCell id="r2QPJSlHGdGXuVaun9jG-79" value="" style="group" parent="1" vertex="1" connectable="0">
          <mxGeometry x="150" y="400" width="140" height="320" as="geometry" />
        </mxCell>
        <mxCell id="r2QPJSlHGdGXuVaun9jG-77" value="Registrados" style="shape=rect;html=1;verticalAlign=top;fontStyle=1;whiteSpace=wrap;align=center;" parent="r2QPJSlHGdGXuVaun9jG-79" vertex="1">
          <mxGeometry width="140" height="320" as="geometry" />
        </mxCell>
        <mxCell id="r2QPJSlHGdGXuVaun9jG-1" value="Usuario" style="shape=umlActor;verticalLabelPosition=bottom;verticalAlign=top;html=1;outlineConnect=0;" parent="r2QPJSlHGdGXuVaun9jG-79" vertex="1">
          <mxGeometry x="50" y="50" width="30" height="60" as="geometry" />
        </mxCell>
        <mxCell id="r2QPJSlHGdGXuVaun9jG-3" value="Protectora&lt;br&gt;Validada" style="shape=umlActor;verticalLabelPosition=bottom;verticalAlign=top;html=1;outlineConnect=0;" parent="r2QPJSlHGdGXuVaun9jG-79" vertex="1">
          <mxGeometry x="50" y="200" width="30" height="60" as="geometry" />
        </mxCell>
        <mxCell id="r2QPJSlHGdGXuVaun9jG-16" value="Enviar aviso&lt;br&gt;a protectora" style="ellipse;whiteSpace=wrap;html=1;" parent="1" vertex="1">
          <mxGeometry x="480" y="220" width="140" height="70" as="geometry" />
        </mxCell>
        <mxCell id="r2QPJSlHGdGXuVaun9jG-17" value="" style="edgeStyle=none;html=1;endArrow=none;verticalAlign=bottom;rounded=0;" parent="1" source="r2QPJSlHGdGXuVaun9jG-1" target="r2QPJSlHGdGXuVaun9jG-16" edge="1">
          <mxGeometry width="160" relative="1" as="geometry">
            <mxPoint x="170" y="335" as="sourcePoint" />
            <mxPoint x="295" y="376" as="targetPoint" />
          </mxGeometry>
        </mxCell>
        <mxCell id="r2QPJSlHGdGXuVaun9jG-27" value="Ver estado animal" style="ellipse;whiteSpace=wrap;html=1;" parent="1" vertex="1">
          <mxGeometry x="480" y="380" width="140" height="70" as="geometry" />
        </mxCell>
        <mxCell id="r2QPJSlHGdGXuVaun9jG-37" value="Recibir&lt;br&gt;datos animal" style="ellipse;whiteSpace=wrap;html=1;" parent="1" vertex="1">
          <mxGeometry x="420" y="650" width="140" height="70" as="geometry" />
        </mxCell>
        <mxCell id="r2QPJSlHGdGXuVaun9jG-29" value="" style="edgeStyle=none;html=1;endArrow=none;verticalAlign=bottom;rounded=0;" parent="1" source="r2QPJSlHGdGXuVaun9jG-1" target="r2QPJSlHGdGXuVaun9jG-27" edge="1">
          <mxGeometry width="160" relative="1" as="geometry">
            <mxPoint x="210" y="300" as="sourcePoint" />
            <mxPoint x="370" y="300" as="targetPoint" />
          </mxGeometry>
        </mxCell>
        <mxCell id="r2QPJSlHGdGXuVaun9jG-38" value="" style="edgeStyle=none;html=1;endArrow=none;verticalAlign=bottom;rounded=0;" parent="1" source="r2QPJSlHGdGXuVaun9jG-3" target="r2QPJSlHGdGXuVaun9jG-37" edge="1">
          <mxGeometry width="160" relative="1" as="geometry">
            <mxPoint x="350" y="750" as="sourcePoint" />
            <mxPoint x="510" y="750" as="targetPoint" />
          </mxGeometry>
        </mxCell>
        <mxCell id="r2QPJSlHGdGXuVaun9jG-44" value="Actualizar estado&lt;br&gt;animal" style="ellipse;whiteSpace=wrap;html=1;" parent="1" vertex="1">
          <mxGeometry x="560" y="810" width="140" height="70" as="geometry" />
        </mxCell>
        <mxCell id="r2QPJSlHGdGXuVaun9jG-45" value="" style="edgeStyle=none;html=1;endArrow=none;verticalAlign=bottom;rounded=0;" parent="1" source="r2QPJSlHGdGXuVaun9jG-3" target="r2QPJSlHGdGXuVaun9jG-44" edge="1">
          <mxGeometry width="160" relative="1" as="geometry">
            <mxPoint x="190" y="810" as="sourcePoint" />
            <mxPoint x="350" y="810" as="targetPoint" />
          </mxGeometry>
        </mxCell>
        <mxCell id="r2QPJSlHGdGXuVaun9jG-51" value="Condition: Si registro es protectora&#xa;extension point: Protectora" style="shape=note;size=15;spacingLeft=5;align=left;whiteSpace=wrap;" parent="1" vertex="1">
          <mxGeometry x="740" y="200" width="230" height="40" as="geometry" />
        </mxCell>
        <mxCell id="r2QPJSlHGdGXuVaun9jG-52" value="&amp;lt;&amp;lt;extend&amp;gt;&amp;gt;" style="align=right;html=1;verticalAlign=bottom;rounded=0;labelBackgroundColor=none;endArrow=open;endSize=12;dashed=1;" parent="1" source="r2QPJSlHGdGXuVaun9jG-18" target="r2QPJSlHGdGXuVaun9jG-54" edge="1">
          <mxGeometry x="-0.2941" y="-5" relative="1" as="geometry">
            <mxPoint x="599.9999999999936" y="445" as="targetPoint" />
            <mxPoint x="890" y="260" as="sourcePoint" />
            <mxPoint as="offset" />
          </mxGeometry>
        </mxCell>
        <mxCell id="r2QPJSlHGdGXuVaun9jG-53" value="" style="edgeStyle=none;html=1;endArrow=none;rounded=0;labelBackgroundColor=none;dashed=1;" parent="1" source="r2QPJSlHGdGXuVaun9jG-51" edge="1">
          <mxGeometry relative="1" as="geometry">
            <mxPoint x="730" y="140" as="targetPoint" />
            <mxPoint x="895" y="390" as="sourcePoint" />
          </mxGeometry>
        </mxCell>
        <mxCell id="r2QPJSlHGdGXuVaun9jG-54" value="&lt;br&gt;&lt;br&gt;Usuario&lt;br&gt;Protectora" style="html=1;shape=mxgraph.sysml.useCaseExtPt;whiteSpace=wrap;align=center;" parent="1" vertex="1">
          <mxGeometry x="470" y="90" width="160" height="80" as="geometry" />
        </mxCell>
        <mxCell id="r2QPJSlHGdGXuVaun9jG-55" value="Registrarse" style="resizable=0;html=1;verticalAlign=middle;align=center;labelBackgroundColor=none;fontStyle=1;" parent="r2QPJSlHGdGXuVaun9jG-54" connectable="0" vertex="1">
          <mxGeometry x="80" y="17" as="geometry" />
        </mxCell>
        <mxCell id="r2QPJSlHGdGXuVaun9jG-63" value="Login" style="ellipse;whiteSpace=wrap;html=1;" parent="1" vertex="1">
          <mxGeometry x="480" y="525" width="140" height="70" as="geometry" />
        </mxCell>
        <mxCell id="r2QPJSlHGdGXuVaun9jG-64" value="&amp;lt;&amp;lt;include&amp;gt;&amp;gt;" style="edgeStyle=none;html=1;endArrow=open;verticalAlign=bottom;dashed=1;labelBackgroundColor=none;rounded=0;" parent="1" source="r2QPJSlHGdGXuVaun9jG-27" target="r2QPJSlHGdGXuVaun9jG-63" edge="1">
          <mxGeometry width="160" relative="1" as="geometry">
            <mxPoint x="1030" y="350" as="sourcePoint" />
            <mxPoint x="1190" y="350" as="targetPoint" />
          </mxGeometry>
        </mxCell>
        <mxCell id="r2QPJSlHGdGXuVaun9jG-66" value="" style="edgeStyle=none;html=1;endArrow=none;verticalAlign=bottom;rounded=0;" parent="1" source="r2QPJSlHGdGXuVaun9jG-3" target="r2QPJSlHGdGXuVaun9jG-63" edge="1">
          <mxGeometry width="160" relative="1" as="geometry">
            <mxPoint x="150" y="630" as="sourcePoint" />
            <mxPoint x="310" y="630" as="targetPoint" />
          </mxGeometry>
        </mxCell>
        <mxCell id="r2QPJSlHGdGXuVaun9jG-67" value="" style="edgeStyle=none;html=1;endArrow=none;verticalAlign=bottom;rounded=0;" parent="1" source="r2QPJSlHGdGXuVaun9jG-1" target="r2QPJSlHGdGXuVaun9jG-63" edge="1">
          <mxGeometry width="160" relative="1" as="geometry">
            <mxPoint x="820" y="450" as="sourcePoint" />
            <mxPoint x="980" y="450" as="targetPoint" />
          </mxGeometry>
        </mxCell>
        <mxCell id="r2QPJSlHGdGXuVaun9jG-68" value="&amp;lt;&amp;lt;include&amp;gt;&amp;gt;" style="edgeStyle=none;html=1;endArrow=open;verticalAlign=bottom;dashed=1;labelBackgroundColor=none;rounded=0;" parent="1" source="r2QPJSlHGdGXuVaun9jG-37" target="r2QPJSlHGdGXuVaun9jG-63" edge="1">
          <mxGeometry x="-0.9056" y="33" width="160" relative="1" as="geometry">
            <mxPoint x="690" y="670" as="sourcePoint" />
            <mxPoint x="850" y="670" as="targetPoint" />
            <mxPoint as="offset" />
          </mxGeometry>
        </mxCell>
        <mxCell id="r2QPJSlHGdGXuVaun9jG-69" value="&amp;lt;&amp;lt;include&amp;gt;&amp;gt;" style="edgeStyle=none;html=1;endArrow=open;verticalAlign=bottom;dashed=1;labelBackgroundColor=none;rounded=0;" parent="1" source="r2QPJSlHGdGXuVaun9jG-44" target="r2QPJSlHGdGXuVaun9jG-63" edge="1">
          <mxGeometry x="-0.6154" y="-20" width="160" relative="1" as="geometry">
            <mxPoint x="260" y="910" as="sourcePoint" />
            <mxPoint x="420" y="910" as="targetPoint" />
            <mxPoint as="offset" />
          </mxGeometry>
        </mxCell>
        <mxCell id="r2QPJSlHGdGXuVaun9jG-70" value="" style="group" parent="1" vertex="1" connectable="0">
          <mxGeometry x="810" y="95" width="300" height="70" as="geometry" />
        </mxCell>
        <mxCell id="r2QPJSlHGdGXuVaun9jG-15" value="Staff" style="shape=umlActor;verticalLabelPosition=bottom;verticalAlign=top;html=1;outlineConnect=0;" parent="r2QPJSlHGdGXuVaun9jG-70" vertex="1">
          <mxGeometry x="270" y="5" width="30" height="60" as="geometry" />
        </mxCell>
        <mxCell id="r2QPJSlHGdGXuVaun9jG-18" value="Validar&lt;br&gt;protectora" style="ellipse;whiteSpace=wrap;html=1;" parent="r2QPJSlHGdGXuVaun9jG-70" vertex="1">
          <mxGeometry width="140" height="70" as="geometry" />
        </mxCell>
        <mxCell id="r2QPJSlHGdGXuVaun9jG-22" value="" style="edgeStyle=none;html=1;endArrow=none;verticalAlign=bottom;rounded=0;" parent="r2QPJSlHGdGXuVaun9jG-70" source="r2QPJSlHGdGXuVaun9jG-18" target="r2QPJSlHGdGXuVaun9jG-15" edge="1">
          <mxGeometry width="160" relative="1" as="geometry">
            <mxPoint x="30" y="-45" as="sourcePoint" />
            <mxPoint x="190" y="-45" as="targetPoint" />
          </mxGeometry>
        </mxCell>
        <mxCell id="r2QPJSlHGdGXuVaun9jG-72" value="" style="edgeStyle=none;html=1;endArrow=none;verticalAlign=bottom;rounded=0;" parent="1" source="r2QPJSlHGdGXuVaun9jG-71" target="r2QPJSlHGdGXuVaun9jG-54" edge="1">
          <mxGeometry width="160" relative="1" as="geometry">
            <mxPoint x="260" y="120" as="sourcePoint" />
            <mxPoint x="260" y="250" as="targetPoint" />
          </mxGeometry>
        </mxCell>
        <mxCell id="r2QPJSlHGdGXuVaun9jG-74" value="" style="edgeStyle=none;html=1;endArrow=none;verticalAlign=bottom;rounded=0;" parent="1" source="r2QPJSlHGdGXuVaun9jG-71" target="r2QPJSlHGdGXuVaun9jG-16" edge="1">
          <mxGeometry width="160" relative="1" as="geometry">
            <mxPoint x="270" y="210" as="sourcePoint" />
            <mxPoint x="430" y="210" as="targetPoint" />
          </mxGeometry>
        </mxCell>
        <mxCell id="r2QPJSlHGdGXuVaun9jG-80" value="" style="edgeStyle=none;html=1;endArrow=block;endFill=0;endSize=12;verticalAlign=bottom;rounded=0;" parent="1" source="r2QPJSlHGdGXuVaun9jG-77" target="r2QPJSlHGdGXuVaun9jG-71" edge="1">
          <mxGeometry width="160" relative="1" as="geometry">
            <mxPoint x="190" y="320" as="sourcePoint" />
            <mxPoint x="350" y="320" as="targetPoint" />
          </mxGeometry>
        </mxCell>
        <mxCell id="r2QPJSlHGdGXuVaun9jG-82" value="" style="group" parent="1" vertex="1" connectable="0">
          <mxGeometry x="185" y="165" width="70" height="90" as="geometry" />
        </mxCell>
        <mxCell id="r2QPJSlHGdGXuVaun9jG-71" value="" style="shape=umlActor;html=1;verticalLabelPosition=bottom;verticalAlign=top;align=center;" parent="r2QPJSlHGdGXuVaun9jG-82" vertex="1">
          <mxGeometry x="20" y="30" width="30" height="60" as="geometry" />
        </mxCell>
        <mxCell id="r2QPJSlHGdGXuVaun9jG-81" value="Invitado" style="text;html=1;align=center;verticalAlign=middle;resizable=0;points=[];autosize=1;strokeColor=none;fillColor=none;" parent="r2QPJSlHGdGXuVaun9jG-82" vertex="1">
          <mxGeometry width="70" height="30" as="geometry" />
        </mxCell>
        <mxCell id="yjdjMbSX4ZFnnPkQLSjd-1" value="User" style="swimlane;fontStyle=1;align=center;verticalAlign=top;childLayout=stackLayout;horizontal=1;startSize=26;horizontalStack=0;resizeParent=1;resizeParentMax=0;resizeLast=0;collapsible=1;marginBottom=0;whiteSpace=wrap;html=1;" vertex="1" parent="1">
          <mxGeometry x="950" y="412" width="160" height="294" as="geometry" />
        </mxCell>
        <mxCell id="yjdjMbSX4ZFnnPkQLSjd-83" value="+ uuid: String" style="text;strokeColor=none;fillColor=none;align=left;verticalAlign=top;spacingLeft=4;spacingRight=4;overflow=hidden;rotatable=0;points=[[0,0.5],[1,0.5]];portConstraint=eastwest;whiteSpace=wrap;html=1;" vertex="1" parent="yjdjMbSX4ZFnnPkQLSjd-1">
          <mxGeometry y="26" width="160" height="26" as="geometry" />
        </mxCell>
        <mxCell id="yjdjMbSX4ZFnnPkQLSjd-30" value="+ identification: String" style="text;strokeColor=none;fillColor=none;align=left;verticalAlign=top;spacingLeft=4;spacingRight=4;overflow=hidden;rotatable=0;points=[[0,0.5],[1,0.5]];portConstraint=eastwest;whiteSpace=wrap;html=1;" vertex="1" parent="yjdjMbSX4ZFnnPkQLSjd-1">
          <mxGeometry y="52" width="160" height="26" as="geometry" />
        </mxCell>
        <mxCell id="yjdjMbSX4ZFnnPkQLSjd-31" value="+ image: String" style="text;strokeColor=none;fillColor=none;align=left;verticalAlign=top;spacingLeft=4;spacingRight=4;overflow=hidden;rotatable=0;points=[[0,0.5],[1,0.5]];portConstraint=eastwest;whiteSpace=wrap;html=1;" vertex="1" parent="yjdjMbSX4ZFnnPkQLSjd-1">
          <mxGeometry y="78" width="160" height="26" as="geometry" />
        </mxCell>
        <mxCell id="yjdjMbSX4ZFnnPkQLSjd-12" value="+ email: String" style="text;strokeColor=none;fillColor=none;align=left;verticalAlign=top;spacingLeft=4;spacingRight=4;overflow=hidden;rotatable=0;points=[[0,0.5],[1,0.5]];portConstraint=eastwest;whiteSpace=wrap;html=1;" vertex="1" parent="yjdjMbSX4ZFnnPkQLSjd-1">
          <mxGeometry y="104" width="160" height="26" as="geometry" />
        </mxCell>
        <mxCell id="yjdjMbSX4ZFnnPkQLSjd-14" value="+ phone: String" style="text;strokeColor=none;fillColor=none;align=left;verticalAlign=top;spacingLeft=4;spacingRight=4;overflow=hidden;rotatable=0;points=[[0,0.5],[1,0.5]];portConstraint=eastwest;whiteSpace=wrap;html=1;" vertex="1" parent="yjdjMbSX4ZFnnPkQLSjd-1">
          <mxGeometry y="130" width="160" height="26" as="geometry" />
        </mxCell>
        <mxCell id="yjdjMbSX4ZFnnPkQLSjd-66" value="+ location: Location" style="text;strokeColor=none;fillColor=none;align=left;verticalAlign=top;spacingLeft=4;spacingRight=4;overflow=hidden;rotatable=0;points=[[0,0.5],[1,0.5]];portConstraint=eastwest;whiteSpace=wrap;html=1;" vertex="1" parent="yjdjMbSX4ZFnnPkQLSjd-1">
          <mxGeometry y="156" width="160" height="26" as="geometry" />
        </mxCell>
        <mxCell id="yjdjMbSX4ZFnnPkQLSjd-2" value="+ add_date: Datetime" style="text;strokeColor=none;fillColor=none;align=left;verticalAlign=top;spacingLeft=4;spacingRight=4;overflow=hidden;rotatable=0;points=[[0,0.5],[1,0.5]];portConstraint=eastwest;whiteSpace=wrap;html=1;" vertex="1" parent="yjdjMbSX4ZFnnPkQLSjd-1">
          <mxGeometry y="182" width="160" height="26" as="geometry" />
        </mxCell>
        <mxCell id="yjdjMbSX4ZFnnPkQLSjd-9" value="+ modified_date: Datetime" style="text;strokeColor=none;fillColor=none;align=left;verticalAlign=top;spacingLeft=4;spacingRight=4;overflow=hidden;rotatable=0;points=[[0,0.5],[1,0.5]];portConstraint=eastwest;whiteSpace=wrap;html=1;" vertex="1" parent="yjdjMbSX4ZFnnPkQLSjd-1">
          <mxGeometry y="208" width="160" height="26" as="geometry" />
        </mxCell>
        <mxCell id="yjdjMbSX4ZFnnPkQLSjd-3" value="" style="line;strokeWidth=1;fillColor=none;align=left;verticalAlign=middle;spacingTop=-1;spacingLeft=3;spacingRight=3;rotatable=0;labelPosition=right;points=[];portConstraint=eastwest;strokeColor=inherit;" vertex="1" parent="yjdjMbSX4ZFnnPkQLSjd-1">
          <mxGeometry y="234" width="160" height="8" as="geometry" />
        </mxCell>
        <mxCell id="yjdjMbSX4ZFnnPkQLSjd-16" value="+ signup(...): void" style="text;strokeColor=none;fillColor=none;align=left;verticalAlign=top;spacingLeft=4;spacingRight=4;overflow=hidden;rotatable=0;points=[[0,0.5],[1,0.5]];portConstraint=eastwest;whiteSpace=wrap;html=1;" vertex="1" parent="yjdjMbSX4ZFnnPkQLSjd-1">
          <mxGeometry y="242" width="160" height="26" as="geometry" />
        </mxCell>
        <mxCell id="yjdjMbSX4ZFnnPkQLSjd-4" value="+ update(...): void" style="text;strokeColor=none;fillColor=none;align=left;verticalAlign=top;spacingLeft=4;spacingRight=4;overflow=hidden;rotatable=0;points=[[0,0.5],[1,0.5]];portConstraint=eastwest;whiteSpace=wrap;html=1;" vertex="1" parent="yjdjMbSX4ZFnnPkQLSjd-1">
          <mxGeometry y="268" width="160" height="26" as="geometry" />
        </mxCell>
        <mxCell id="yjdjMbSX4ZFnnPkQLSjd-17" value="Shelter" style="swimlane;fontStyle=1;align=center;verticalAlign=top;childLayout=stackLayout;horizontal=1;startSize=26;horizontalStack=0;resizeParent=1;resizeParentMax=0;resizeLast=0;collapsible=1;marginBottom=0;whiteSpace=wrap;html=1;" vertex="1" parent="1">
          <mxGeometry x="1245" y="585" width="230" height="164" as="geometry" />
        </mxCell>
        <mxCell id="yjdjMbSX4ZFnnPkQLSjd-105" value="+ validated: Boolean" style="text;strokeColor=none;fillColor=none;align=left;verticalAlign=top;spacingLeft=4;spacingRight=4;overflow=hidden;rotatable=0;points=[[0,0.5],[1,0.5]];portConstraint=eastwest;whiteSpace=wrap;html=1;" vertex="1" parent="yjdjMbSX4ZFnnPkQLSjd-17">
          <mxGeometry y="26" width="230" height="26" as="geometry" />
        </mxCell>
        <mxCell id="yjdjMbSX4ZFnnPkQLSjd-108" value="+ staff: Int" style="text;strokeColor=none;fillColor=none;align=left;verticalAlign=top;spacingLeft=4;spacingRight=4;overflow=hidden;rotatable=0;points=[[0,0.5],[1,0.5]];portConstraint=eastwest;whiteSpace=wrap;html=1;" vertex="1" parent="yjdjMbSX4ZFnnPkQLSjd-17">
          <mxGeometry y="52" width="230" height="26" as="geometry" />
        </mxCell>
        <mxCell id="yjdjMbSX4ZFnnPkQLSjd-19" value="+ volunteers: Int" style="text;strokeColor=none;fillColor=none;align=left;verticalAlign=top;spacingLeft=4;spacingRight=4;overflow=hidden;rotatable=0;points=[[0,0.5],[1,0.5]];portConstraint=eastwest;whiteSpace=wrap;html=1;" vertex="1" parent="yjdjMbSX4ZFnnPkQLSjd-17">
          <mxGeometry y="78" width="230" height="26" as="geometry" />
        </mxCell>
        <mxCell id="yjdjMbSX4ZFnnPkQLSjd-26" value="" style="line;strokeWidth=1;fillColor=none;align=left;verticalAlign=middle;spacingTop=-1;spacingLeft=3;spacingRight=3;rotatable=0;labelPosition=right;points=[];portConstraint=eastwest;strokeColor=inherit;" vertex="1" parent="yjdjMbSX4ZFnnPkQLSjd-17">
          <mxGeometry y="104" width="230" height="8" as="geometry" />
        </mxCell>
        <mxCell id="yjdjMbSX4ZFnnPkQLSjd-27" value="+ validate(...): void" style="text;strokeColor=none;fillColor=none;align=left;verticalAlign=top;spacingLeft=4;spacingRight=4;overflow=hidden;rotatable=0;points=[[0,0.5],[1,0.5]];portConstraint=eastwest;whiteSpace=wrap;html=1;" vertex="1" parent="yjdjMbSX4ZFnnPkQLSjd-17">
          <mxGeometry y="112" width="230" height="26" as="geometry" />
        </mxCell>
        <mxCell id="yjdjMbSX4ZFnnPkQLSjd-110" value="+ inform_animal_state(Animal): void" style="text;strokeColor=none;fillColor=none;align=left;verticalAlign=top;spacingLeft=4;spacingRight=4;overflow=hidden;rotatable=0;points=[[0,0.5],[1,0.5]];portConstraint=eastwest;whiteSpace=wrap;html=1;" vertex="1" parent="yjdjMbSX4ZFnnPkQLSjd-17">
          <mxGeometry y="138" width="230" height="26" as="geometry" />
        </mxCell>
        <mxCell id="yjdjMbSX4ZFnnPkQLSjd-32" value="" style="endArrow=block;html=1;endFill=0;edgeStyle=elbowEdgeStyle;elbow=vertical;rounded=0;" edge="1" parent="1" source="yjdjMbSX4ZFnnPkQLSjd-1" target="yjdjMbSX4ZFnnPkQLSjd-17">
          <mxGeometry width="160" relative="1" as="geometry">
            <mxPoint x="1130" y="579.58" as="sourcePoint" />
            <mxPoint x="1290" y="579.58" as="targetPoint" />
          </mxGeometry>
        </mxCell>
        <mxCell id="yjdjMbSX4ZFnnPkQLSjd-33" value="Staff" style="swimlane;fontStyle=1;align=center;verticalAlign=top;childLayout=stackLayout;horizontal=1;startSize=26;horizontalStack=0;resizeParent=1;resizeParentMax=0;resizeLast=0;collapsible=1;marginBottom=0;whiteSpace=wrap;html=1;" vertex="1" parent="1">
          <mxGeometry x="1560" y="330" width="210" height="86" as="geometry" />
        </mxCell>
        <mxCell id="yjdjMbSX4ZFnnPkQLSjd-35" value="+ staff_identification: String" style="text;strokeColor=none;fillColor=none;align=left;verticalAlign=top;spacingLeft=4;spacingRight=4;overflow=hidden;rotatable=0;points=[[0,0.5],[1,0.5]];portConstraint=eastwest;whiteSpace=wrap;html=1;" vertex="1" parent="yjdjMbSX4ZFnnPkQLSjd-33">
          <mxGeometry y="26" width="210" height="26" as="geometry" />
        </mxCell>
        <mxCell id="yjdjMbSX4ZFnnPkQLSjd-44" value="" style="line;strokeWidth=1;fillColor=none;align=left;verticalAlign=middle;spacingTop=-1;spacingLeft=3;spacingRight=3;rotatable=0;labelPosition=right;points=[];portConstraint=eastwest;strokeColor=inherit;" vertex="1" parent="yjdjMbSX4ZFnnPkQLSjd-33">
          <mxGeometry y="52" width="210" height="8" as="geometry" />
        </mxCell>
        <mxCell id="yjdjMbSX4ZFnnPkQLSjd-45" value="+ validate_shelter&lt;span style=&quot;background-color: initial;&quot;&gt;(Shelter): void&lt;/span&gt;" style="text;strokeColor=none;fillColor=none;align=left;verticalAlign=top;spacingLeft=4;spacingRight=4;overflow=hidden;rotatable=0;points=[[0,0.5],[1,0.5]];portConstraint=eastwest;whiteSpace=wrap;html=1;" vertex="1" parent="yjdjMbSX4ZFnnPkQLSjd-33">
          <mxGeometry y="60" width="210" height="26" as="geometry" />
        </mxCell>
        <mxCell id="yjdjMbSX4ZFnnPkQLSjd-48" value="Animal" style="swimlane;fontStyle=1;align=center;verticalAlign=top;childLayout=stackLayout;horizontal=1;startSize=26;horizontalStack=0;resizeParent=1;resizeParentMax=0;resizeLast=0;collapsible=1;marginBottom=0;whiteSpace=wrap;html=1;" vertex="1" parent="1">
          <mxGeometry x="1740" y="450" width="160" height="372" as="geometry" />
        </mxCell>
        <mxCell id="yjdjMbSX4ZFnnPkQLSjd-84" value="+ uuid: String" style="text;strokeColor=none;fillColor=none;align=left;verticalAlign=top;spacingLeft=4;spacingRight=4;overflow=hidden;rotatable=0;points=[[0,0.5],[1,0.5]];portConstraint=eastwest;whiteSpace=wrap;html=1;" vertex="1" parent="yjdjMbSX4ZFnnPkQLSjd-48">
          <mxGeometry y="26" width="160" height="26" as="geometry" />
        </mxCell>
        <mxCell id="yjdjMbSX4ZFnnPkQLSjd-49" value="+ name: String" style="text;strokeColor=none;fillColor=none;align=left;verticalAlign=top;spacingLeft=4;spacingRight=4;overflow=hidden;rotatable=0;points=[[0,0.5],[1,0.5]];portConstraint=eastwest;whiteSpace=wrap;html=1;" vertex="1" parent="yjdjMbSX4ZFnnPkQLSjd-48">
          <mxGeometry y="52" width="160" height="26" as="geometry" />
        </mxCell>
        <mxCell id="yjdjMbSX4ZFnnPkQLSjd-51" value="+ identification: String" style="text;strokeColor=none;fillColor=none;align=left;verticalAlign=top;spacingLeft=4;spacingRight=4;overflow=hidden;rotatable=0;points=[[0,0.5],[1,0.5]];portConstraint=eastwest;whiteSpace=wrap;html=1;" vertex="1" parent="yjdjMbSX4ZFnnPkQLSjd-48">
          <mxGeometry y="78" width="160" height="26" as="geometry" />
        </mxCell>
        <mxCell id="yjdjMbSX4ZFnnPkQLSjd-52" value="+ image: String" style="text;strokeColor=none;fillColor=none;align=left;verticalAlign=top;spacingLeft=4;spacingRight=4;overflow=hidden;rotatable=0;points=[[0,0.5],[1,0.5]];portConstraint=eastwest;whiteSpace=wrap;html=1;" vertex="1" parent="yjdjMbSX4ZFnnPkQLSjd-48">
          <mxGeometry y="104" width="160" height="26" as="geometry" />
        </mxCell>
        <mxCell id="yjdjMbSX4ZFnnPkQLSjd-56" value="+ gender: Int" style="text;strokeColor=none;fillColor=none;align=left;verticalAlign=top;spacingLeft=4;spacingRight=4;overflow=hidden;rotatable=0;points=[[0,0.5],[1,0.5]];portConstraint=eastwest;whiteSpace=wrap;html=1;" vertex="1" parent="yjdjMbSX4ZFnnPkQLSjd-48">
          <mxGeometry y="130" width="160" height="26" as="geometry" />
        </mxCell>
        <mxCell id="yjdjMbSX4ZFnnPkQLSjd-65" value="+ adopted: Boolean" style="text;strokeColor=none;fillColor=none;align=left;verticalAlign=top;spacingLeft=4;spacingRight=4;overflow=hidden;rotatable=0;points=[[0,0.5],[1,0.5]];portConstraint=eastwest;whiteSpace=wrap;html=1;" vertex="1" parent="yjdjMbSX4ZFnnPkQLSjd-48">
          <mxGeometry y="156" width="160" height="26" as="geometry" />
        </mxCell>
        <mxCell id="yjdjMbSX4ZFnnPkQLSjd-63" value="+ adopter: User" style="text;strokeColor=none;fillColor=none;align=left;verticalAlign=top;spacingLeft=4;spacingRight=4;overflow=hidden;rotatable=0;points=[[0,0.5],[1,0.5]];portConstraint=eastwest;whiteSpace=wrap;html=1;" vertex="1" parent="yjdjMbSX4ZFnnPkQLSjd-48">
          <mxGeometry y="182" width="160" height="26" as="geometry" />
        </mxCell>
        <mxCell id="yjdjMbSX4ZFnnPkQLSjd-64" value="+ shelter: Shelter" style="text;strokeColor=none;fillColor=none;align=left;verticalAlign=top;spacingLeft=4;spacingRight=4;overflow=hidden;rotatable=0;points=[[0,0.5],[1,0.5]];portConstraint=eastwest;whiteSpace=wrap;html=1;" vertex="1" parent="yjdjMbSX4ZFnnPkQLSjd-48">
          <mxGeometry y="208" width="160" height="26" as="geometry" />
        </mxCell>
        <mxCell id="yjdjMbSX4ZFnnPkQLSjd-57" value="+ add_date: Datetime" style="text;strokeColor=none;fillColor=none;align=left;verticalAlign=top;spacingLeft=4;spacingRight=4;overflow=hidden;rotatable=0;points=[[0,0.5],[1,0.5]];portConstraint=eastwest;whiteSpace=wrap;html=1;" vertex="1" parent="yjdjMbSX4ZFnnPkQLSjd-48">
          <mxGeometry y="234" width="160" height="26" as="geometry" />
        </mxCell>
        <mxCell id="yjdjMbSX4ZFnnPkQLSjd-58" value="+ modified_date: Datetime" style="text;strokeColor=none;fillColor=none;align=left;verticalAlign=top;spacingLeft=4;spacingRight=4;overflow=hidden;rotatable=0;points=[[0,0.5],[1,0.5]];portConstraint=eastwest;whiteSpace=wrap;html=1;" vertex="1" parent="yjdjMbSX4ZFnnPkQLSjd-48">
          <mxGeometry y="260" width="160" height="26" as="geometry" />
        </mxCell>
        <mxCell id="yjdjMbSX4ZFnnPkQLSjd-59" value="" style="line;strokeWidth=1;fillColor=none;align=left;verticalAlign=middle;spacingTop=-1;spacingLeft=3;spacingRight=3;rotatable=0;labelPosition=right;points=[];portConstraint=eastwest;strokeColor=inherit;" vertex="1" parent="yjdjMbSX4ZFnnPkQLSjd-48">
          <mxGeometry y="286" width="160" height="8" as="geometry" />
        </mxCell>
        <mxCell id="yjdjMbSX4ZFnnPkQLSjd-60" value="+ adopt(...): void" style="text;strokeColor=none;fillColor=none;align=left;verticalAlign=top;spacingLeft=4;spacingRight=4;overflow=hidden;rotatable=0;points=[[0,0.5],[1,0.5]];portConstraint=eastwest;whiteSpace=wrap;html=1;" vertex="1" parent="yjdjMbSX4ZFnnPkQLSjd-48">
          <mxGeometry y="294" width="160" height="26" as="geometry" />
        </mxCell>
        <mxCell id="yjdjMbSX4ZFnnPkQLSjd-62" value="+ inform(...): void" style="text;strokeColor=none;fillColor=none;align=left;verticalAlign=top;spacingLeft=4;spacingRight=4;overflow=hidden;rotatable=0;points=[[0,0.5],[1,0.5]];portConstraint=eastwest;whiteSpace=wrap;html=1;" vertex="1" parent="yjdjMbSX4ZFnnPkQLSjd-48">
          <mxGeometry y="320" width="160" height="26" as="geometry" />
        </mxCell>
        <mxCell id="yjdjMbSX4ZFnnPkQLSjd-61" value="+ update(...): void" style="text;strokeColor=none;fillColor=none;align=left;verticalAlign=top;spacingLeft=4;spacingRight=4;overflow=hidden;rotatable=0;points=[[0,0.5],[1,0.5]];portConstraint=eastwest;whiteSpace=wrap;html=1;" vertex="1" parent="yjdjMbSX4ZFnnPkQLSjd-48">
          <mxGeometry y="346" width="160" height="26" as="geometry" />
        </mxCell>
        <mxCell id="yjdjMbSX4ZFnnPkQLSjd-67" value="Location" style="swimlane;fontStyle=1;align=center;verticalAlign=top;childLayout=stackLayout;horizontal=1;startSize=26;horizontalStack=0;resizeParent=1;resizeParentMax=0;resizeLast=0;collapsible=1;marginBottom=0;whiteSpace=wrap;html=1;" vertex="1" parent="1">
          <mxGeometry x="1540" y="464" width="160" height="372" as="geometry" />
        </mxCell>
        <mxCell id="yjdjMbSX4ZFnnPkQLSjd-82" value="+ uuid: String" style="text;strokeColor=none;fillColor=none;align=left;verticalAlign=top;spacingLeft=4;spacingRight=4;overflow=hidden;rotatable=0;points=[[0,0.5],[1,0.5]];portConstraint=eastwest;whiteSpace=wrap;html=1;" vertex="1" parent="yjdjMbSX4ZFnnPkQLSjd-67">
          <mxGeometry y="26" width="160" height="26" as="geometry" />
        </mxCell>
        <mxCell id="yjdjMbSX4ZFnnPkQLSjd-68" value="+ type: String" style="text;strokeColor=none;fillColor=none;align=left;verticalAlign=top;spacingLeft=4;spacingRight=4;overflow=hidden;rotatable=0;points=[[0,0.5],[1,0.5]];portConstraint=eastwest;whiteSpace=wrap;html=1;" vertex="1" parent="yjdjMbSX4ZFnnPkQLSjd-67">
          <mxGeometry y="52" width="160" height="26" as="geometry" />
        </mxCell>
        <mxCell id="yjdjMbSX4ZFnnPkQLSjd-69" value="+ name: String" style="text;strokeColor=none;fillColor=none;align=left;verticalAlign=top;spacingLeft=4;spacingRight=4;overflow=hidden;rotatable=0;points=[[0,0.5],[1,0.5]];portConstraint=eastwest;whiteSpace=wrap;html=1;" vertex="1" parent="yjdjMbSX4ZFnnPkQLSjd-67">
          <mxGeometry y="78" width="160" height="26" as="geometry" />
        </mxCell>
        <mxCell id="yjdjMbSX4ZFnnPkQLSjd-70" value="+ number: Int" style="text;strokeColor=none;fillColor=none;align=left;verticalAlign=top;spacingLeft=4;spacingRight=4;overflow=hidden;rotatable=0;points=[[0,0.5],[1,0.5]];portConstraint=eastwest;whiteSpace=wrap;html=1;" vertex="1" parent="yjdjMbSX4ZFnnPkQLSjd-67">
          <mxGeometry y="104" width="160" height="26" as="geometry" />
        </mxCell>
        <mxCell id="yjdjMbSX4ZFnnPkQLSjd-71" value="+ postal_code: Int" style="text;strokeColor=none;fillColor=none;align=left;verticalAlign=top;spacingLeft=4;spacingRight=4;overflow=hidden;rotatable=0;points=[[0,0.5],[1,0.5]];portConstraint=eastwest;whiteSpace=wrap;html=1;" vertex="1" parent="yjdjMbSX4ZFnnPkQLSjd-67">
          <mxGeometry y="130" width="160" height="26" as="geometry" />
        </mxCell>
        <mxCell id="yjdjMbSX4ZFnnPkQLSjd-72" value="+&amp;nbsp;municipality&lt;span style=&quot;background-color: initial;&quot;&gt;: String&lt;/span&gt;" style="text;strokeColor=none;fillColor=none;align=left;verticalAlign=top;spacingLeft=4;spacingRight=4;overflow=hidden;rotatable=0;points=[[0,0.5],[1,0.5]];portConstraint=eastwest;whiteSpace=wrap;html=1;" vertex="1" parent="yjdjMbSX4ZFnnPkQLSjd-67">
          <mxGeometry y="156" width="160" height="26" as="geometry" />
        </mxCell>
        <mxCell id="yjdjMbSX4ZFnnPkQLSjd-73" value="+ state: String" style="text;strokeColor=none;fillColor=none;align=left;verticalAlign=top;spacingLeft=4;spacingRight=4;overflow=hidden;rotatable=0;points=[[0,0.5],[1,0.5]];portConstraint=eastwest;whiteSpace=wrap;html=1;" vertex="1" parent="yjdjMbSX4ZFnnPkQLSjd-67">
          <mxGeometry y="182" width="160" height="26" as="geometry" />
        </mxCell>
        <mxCell id="yjdjMbSX4ZFnnPkQLSjd-74" value="+ country: Location" style="text;strokeColor=none;fillColor=none;align=left;verticalAlign=top;spacingLeft=4;spacingRight=4;overflow=hidden;rotatable=0;points=[[0,0.5],[1,0.5]];portConstraint=eastwest;whiteSpace=wrap;html=1;" vertex="1" parent="yjdjMbSX4ZFnnPkQLSjd-67">
          <mxGeometry y="208" width="160" height="26" as="geometry" />
        </mxCell>
        <mxCell id="yjdjMbSX4ZFnnPkQLSjd-112" value="+ latitude: String" style="text;strokeColor=none;fillColor=none;align=left;verticalAlign=top;spacingLeft=4;spacingRight=4;overflow=hidden;rotatable=0;points=[[0,0.5],[1,0.5]];portConstraint=eastwest;whiteSpace=wrap;html=1;" vertex="1" parent="yjdjMbSX4ZFnnPkQLSjd-67">
          <mxGeometry y="234" width="160" height="26" as="geometry" />
        </mxCell>
        <mxCell id="yjdjMbSX4ZFnnPkQLSjd-111" value="+ longitude: String" style="text;strokeColor=none;fillColor=none;align=left;verticalAlign=top;spacingLeft=4;spacingRight=4;overflow=hidden;rotatable=0;points=[[0,0.5],[1,0.5]];portConstraint=eastwest;whiteSpace=wrap;html=1;" vertex="1" parent="yjdjMbSX4ZFnnPkQLSjd-67">
          <mxGeometry y="260" width="160" height="26" as="geometry" />
        </mxCell>
        <mxCell id="yjdjMbSX4ZFnnPkQLSjd-77" value="+ add_date: Datetime" style="text;strokeColor=none;fillColor=none;align=left;verticalAlign=top;spacingLeft=4;spacingRight=4;overflow=hidden;rotatable=0;points=[[0,0.5],[1,0.5]];portConstraint=eastwest;whiteSpace=wrap;html=1;" vertex="1" parent="yjdjMbSX4ZFnnPkQLSjd-67">
          <mxGeometry y="286" width="160" height="26" as="geometry" />
        </mxCell>
        <mxCell id="yjdjMbSX4ZFnnPkQLSjd-78" value="+ modified_date: Datetime" style="text;strokeColor=none;fillColor=none;align=left;verticalAlign=top;spacingLeft=4;spacingRight=4;overflow=hidden;rotatable=0;points=[[0,0.5],[1,0.5]];portConstraint=eastwest;whiteSpace=wrap;html=1;" vertex="1" parent="yjdjMbSX4ZFnnPkQLSjd-67">
          <mxGeometry y="312" width="160" height="26" as="geometry" />
        </mxCell>
        <mxCell id="yjdjMbSX4ZFnnPkQLSjd-79" value="" style="line;strokeWidth=1;fillColor=none;align=left;verticalAlign=middle;spacingTop=-1;spacingLeft=3;spacingRight=3;rotatable=0;labelPosition=right;points=[];portConstraint=eastwest;strokeColor=inherit;" vertex="1" parent="yjdjMbSX4ZFnnPkQLSjd-67">
          <mxGeometry y="338" width="160" height="8" as="geometry" />
        </mxCell>
        <mxCell id="yjdjMbSX4ZFnnPkQLSjd-81" value="+ update(...): void" style="text;strokeColor=none;fillColor=none;align=left;verticalAlign=top;spacingLeft=4;spacingRight=4;overflow=hidden;rotatable=0;points=[[0,0.5],[1,0.5]];portConstraint=eastwest;whiteSpace=wrap;html=1;" vertex="1" parent="yjdjMbSX4ZFnnPkQLSjd-67">
          <mxGeometry y="346" width="160" height="26" as="geometry" />
        </mxCell>
        <mxCell id="yjdjMbSX4ZFnnPkQLSjd-86" value="Person" style="swimlane;fontStyle=1;align=center;verticalAlign=top;childLayout=stackLayout;horizontal=1;startSize=26;horizontalStack=0;resizeParent=1;resizeParentMax=0;resizeLast=0;collapsible=1;marginBottom=0;whiteSpace=wrap;html=1;" vertex="1" parent="1">
          <mxGeometry x="1260" y="320" width="200" height="216" as="geometry" />
        </mxCell>
        <mxCell id="yjdjMbSX4ZFnnPkQLSjd-88" value="+ name: String" style="text;strokeColor=none;fillColor=none;align=left;verticalAlign=top;spacingLeft=4;spacingRight=4;overflow=hidden;rotatable=0;points=[[0,0.5],[1,0.5]];portConstraint=eastwest;whiteSpace=wrap;html=1;" vertex="1" parent="yjdjMbSX4ZFnnPkQLSjd-86">
          <mxGeometry y="26" width="200" height="26" as="geometry" />
        </mxCell>
        <mxCell id="yjdjMbSX4ZFnnPkQLSjd-89" value="+ last_name: String" style="text;strokeColor=none;fillColor=none;align=left;verticalAlign=top;spacingLeft=4;spacingRight=4;overflow=hidden;rotatable=0;points=[[0,0.5],[1,0.5]];portConstraint=eastwest;whiteSpace=wrap;html=1;" vertex="1" parent="yjdjMbSX4ZFnnPkQLSjd-86">
          <mxGeometry y="52" width="200" height="26" as="geometry" />
        </mxCell>
        <mxCell id="yjdjMbSX4ZFnnPkQLSjd-95" value="+ birthdate: Datetime" style="text;strokeColor=none;fillColor=none;align=left;verticalAlign=top;spacingLeft=4;spacingRight=4;overflow=hidden;rotatable=0;points=[[0,0.5],[1,0.5]];portConstraint=eastwest;whiteSpace=wrap;html=1;" vertex="1" parent="yjdjMbSX4ZFnnPkQLSjd-86">
          <mxGeometry y="78" width="200" height="26" as="geometry" />
        </mxCell>
        <mxCell id="yjdjMbSX4ZFnnPkQLSjd-96" value="+ gender: Int" style="text;strokeColor=none;fillColor=none;align=left;verticalAlign=top;spacingLeft=4;spacingRight=4;overflow=hidden;rotatable=0;points=[[0,0.5],[1,0.5]];portConstraint=eastwest;whiteSpace=wrap;html=1;" vertex="1" parent="yjdjMbSX4ZFnnPkQLSjd-86">
          <mxGeometry y="104" width="200" height="26" as="geometry" />
        </mxCell>
        <mxCell id="yjdjMbSX4ZFnnPkQLSjd-106" value="+ favourite_shelters: Shelter&amp;lt;&amp;gt;" style="text;strokeColor=none;fillColor=none;align=left;verticalAlign=top;spacingLeft=4;spacingRight=4;overflow=hidden;rotatable=0;points=[[0,0.5],[1,0.5]];portConstraint=eastwest;whiteSpace=wrap;html=1;" vertex="1" parent="yjdjMbSX4ZFnnPkQLSjd-86">
          <mxGeometry y="130" width="200" height="26" as="geometry" />
        </mxCell>
        <mxCell id="yjdjMbSX4ZFnnPkQLSjd-99" value="" style="line;strokeWidth=1;fillColor=none;align=left;verticalAlign=middle;spacingTop=-1;spacingLeft=3;spacingRight=3;rotatable=0;labelPosition=right;points=[];portConstraint=eastwest;strokeColor=inherit;" vertex="1" parent="yjdjMbSX4ZFnnPkQLSjd-86">
          <mxGeometry y="156" width="200" height="8" as="geometry" />
        </mxCell>
        <mxCell id="yjdjMbSX4ZFnnPkQLSjd-101" value="+ update(...): void" style="text;strokeColor=none;fillColor=none;align=left;verticalAlign=top;spacingLeft=4;spacingRight=4;overflow=hidden;rotatable=0;points=[[0,0.5],[1,0.5]];portConstraint=eastwest;whiteSpace=wrap;html=1;" vertex="1" parent="yjdjMbSX4ZFnnPkQLSjd-86">
          <mxGeometry y="164" width="200" height="26" as="geometry" />
        </mxCell>
        <mxCell id="yjdjMbSX4ZFnnPkQLSjd-109" value="+ send_notification(Animal): void" style="text;strokeColor=none;fillColor=none;align=left;verticalAlign=top;spacingLeft=4;spacingRight=4;overflow=hidden;rotatable=0;points=[[0,0.5],[1,0.5]];portConstraint=eastwest;whiteSpace=wrap;html=1;" vertex="1" parent="yjdjMbSX4ZFnnPkQLSjd-86">
          <mxGeometry y="190" width="200" height="26" as="geometry" />
        </mxCell>
        <mxCell id="yjdjMbSX4ZFnnPkQLSjd-103" value="" style="endArrow=block;html=1;endFill=0;edgeStyle=elbowEdgeStyle;elbow=vertical;rounded=0;" edge="1" parent="1" source="yjdjMbSX4ZFnnPkQLSjd-1" target="yjdjMbSX4ZFnnPkQLSjd-86">
          <mxGeometry width="160" relative="1" as="geometry">
            <mxPoint x="1190" y="486" as="sourcePoint" />
            <mxPoint x="1520" y="450" as="targetPoint" />
          </mxGeometry>
        </mxCell>
        <mxCell id="yjdjMbSX4ZFnnPkQLSjd-104" value="" style="endArrow=block;html=1;endFill=0;edgeStyle=elbowEdgeStyle;elbow=vertical;rounded=0;" edge="1" parent="1" source="yjdjMbSX4ZFnnPkQLSjd-86" target="yjdjMbSX4ZFnnPkQLSjd-33">
          <mxGeometry width="160" relative="1" as="geometry">
            <mxPoint x="1100" y="330.14" as="sourcePoint" />
            <mxPoint x="1270" y="330.14" as="targetPoint" />
          </mxGeometry>
        </mxCell>
      </root>
    </mxGraphModel>
  </diagram>
</mxfile>
